# Blender 3.5.1
# www.blender.org
mtllib Paper3.mtl
o Cube.002
v -0.596255 0.030000 -1.000000
v 1.827526 0.030000 -1.000000
v 1.578074 0.030000 1.000000
v 1.829471 -0.030000 -1.000000
v -0.590134 -0.030000 -1.000000
v 1.575284 -0.030000 1.000000
vn -0.0000 1.0000 -0.0000
vn -0.0000 -1.0000 -0.0000
vn -0.0000 -0.0000 -1.0000
vn 0.9921 -0.0070 0.1249
vn -0.6776 -0.0188 0.7352
vt 0.787266 0.500000
vt 0.625000 0.337734
vt 0.635780 0.500000
vt 0.625000 0.489220
vt 0.651370 0.750000
vt 0.364342 0.500000
vt 0.375000 0.489342
vt 0.375000 0.338117
vt 0.213117 0.500000
vt 0.348455 0.750000
s 0
f 1/1/1 3/5/1 2/3/1
f 4/6/2 6/10/2 5/9/2
f 5/8/3 1/2/3 2/4/3 4/7/3
f 2/4/4 3/5/4 6/10/4 4/7/4
f 3/5/5 1/2/5 5/9/5 6/10/5
